<?xml version="1.0" encoding="UTF-8"?>
<svg id="Layer_1" xmlns="http://www.w3.org/2000/svg" width="125" height="125" xmlns:xlink="http://www.w3.org/1999/xlink" version="1.1" viewBox="0 0 125 125">
  <!-- Generator: Adobe Illustrator 29.3.1, SVG Export Plug-In . SVG Version: 2.1.0 Build 151)  -->
  <defs>
    <style>
      .st0 {
        fill: url(#linear-gradient2);
      }

      .st1 {
        fill: url(#linear-gradient1);
      }

      .st2 {
        fill: url(#linear-gradient3);
      }

      .st3 {
        fill: url(#linear-gradient5);
      }

      .st4 {
        fill: url(#linear-gradient4);
      }

      .st5 {
        fill: url(#linear-gradient);
      }
    </style>
    <linearGradient id="linear-gradient" x1="1.45805" y1="720.38866" x2="104.01806" y2="720.38866" gradientTransform="translate(0 -666.4176)" gradientUnits="userSpaceOnUse">
      <stop offset=".01" stop-color="#fff"/>
      <stop offset=".8" stop-color="#fff" stop-opacity=".05"/>
      <stop offset="1" stop-color="#fff" stop-opacity="0"/>
    </linearGradient>
    <linearGradient id="linear-gradient1" x1="10.69736" y1="722.01999" x2="97.68085" y2="722.01999" gradientTransform="translate(0 -666.4176)" gradientUnits="userSpaceOnUse">
      <stop offset=".01" stop-color="#fff"/>
      <stop offset=".8" stop-color="#fff" stop-opacity=".05"/>
      <stop offset="1" stop-color="#fff" stop-opacity="0"/>
    </linearGradient>
    <linearGradient id="linear-gradient2" x1="21.22805" y1="723.34643" x2="90.55805" y2="723.34643" gradientTransform="translate(0 -666.4176)" gradientUnits="userSpaceOnUse">
      <stop offset=".01" stop-color="#fff"/>
      <stop offset=".8" stop-color="#fff" stop-opacity=".05"/>
      <stop offset="1" stop-color="#fff" stop-opacity="0"/>
    </linearGradient>
    <linearGradient id="linear-gradient3" x1="20.88085" y1="737.51569" x2="123.44085" y2="737.51569" gradientTransform="translate(0 -666.4176)" gradientUnits="userSpaceOnUse">
      <stop offset="0" stop-color="#fff" stop-opacity="0"/>
      <stop offset=".2" stop-color="#fff" stop-opacity=".05"/>
      <stop offset=".99" stop-color="#fff"/>
    </linearGradient>
    <linearGradient id="linear-gradient4" x1="27.18085" y1="735.93391" x2="114.18085" y2="735.93391" gradientTransform="translate(0 -666.4176)" gradientUnits="userSpaceOnUse">
      <stop offset="0" stop-color="#fff" stop-opacity="0"/>
      <stop offset=".2" stop-color="#fff" stop-opacity=".05"/>
      <stop offset=".99" stop-color="#fff"/>
    </linearGradient>
    <linearGradient id="linear-gradient5" x1="34.38085" y1="734.46234" x2="103.68085" y2="734.46234" gradientTransform="translate(0 -666.4176)" gradientUnits="userSpaceOnUse">
      <stop offset="0" stop-color="#fff" stop-opacity="0"/>
      <stop offset=".2" stop-color="#fff" stop-opacity=".05"/>
      <stop offset=".99" stop-color="#fff"/>
    </linearGradient>
  </defs>
  <g id="Layer_2">
    <g id="Layer_1-2">
      <path class="st5" d="M3.58085,62.51914C3.58085,30.01914,29.98085,3.71914,62.48085,3.71914c14.9,0,29.2,5.6,40.1,15.8l1.5-1.6c-24.3-23.5-62.9-22.8-86.3,1.4-23.4,24.2-22.8,62.8,1.4,86.3.6.6,1.2,1.1,1.8,1.6l1.5-1.6C10.38085,94.41914,3.58085,78.81914,3.58085,62.51914Z"/>
      <path class="st1" d="M12.88085,62.51914c0-27.4,22.1-49.5,49.5-49.6,12.5,0,24.6,4.7,33.8,13.3l1.5-1.6C76.78085,5.21914,44.08085,6.31914,24.58085,27.31914c-19.5,21-18.3,53.6,2.6,73.1l1.5-1.6c-10.1-9.4-15.8-22.5-15.8-36.3Z"/>
      <path class="st0" d="M23.38085,62.51914c-.1-21.5,17.3-39.1,38.9-39.1,10,0,19.5,3.7,26.8,10.6l1.5-1.6c-16.6-15.7-42.7-14.9-58.3,1.7s-14.8,42.6,1.7,58.3c.1.1.2.2.3.3l1.5-1.6c-7.9-7.4-12.4-17.8-12.4-28.6Z"/>
      <path class="st2" d="M103.98085,17.91915l-1.5,1.6c24.4,21.4,26.9,58.5,5.5,83s-58.5,26.89999-83,5.5c-.9-.8-1.8-1.6-2.6-2.5l-1.5,1.6c24.2,23.4,62.8,22.8,86.3-1.4,23.5-24.2,22.8-62.8-1.4-86.3-.60001-.5-1.2-1.1-1.8-1.5h0Z"/>
      <path class="st4" d="M114.18085,62.51914c0-14.4-6-28.1-16.5-37.8l-1.5,1.6c20,18.6,21.1,50,2.5,70s-50,21.1-70,2.5l-1.5,1.6c20.9,19.5,53.6,18.3,73.1-2.5,9-9.7,13.9-22.3,13.9-35.4h0Z"/>
      <path class="st3" d="M103.68085,62.51914c0-11.4-4.8-22.4-13.1-30.2l-1.5,1.6c15.8,14.7,16.7,39.4,2,55.2s-39.4,16.7-55.2,2h0l-1.5,1.60001c16.7,15.5,42.8,14.6,58.3-2.1,7.1-7.6,11-17.7,11-28.1Z"/>
    </g>
  </g>
</svg>